{"title":"David Gilmour - Remember That Night (2007) [Columbia US - 88697","uid":9609764,"size":1664686178,"categoryP":"audio","categoryS":"flac","magnet":"?xt=urn:btih:56425c3600e565ec91f22980b2d83ff12140aae9&amp;dn=David+Gilmour+-+Remember+That+Night+%282007%29+%5BColumbia+US+-+88697+&amp;tr=udp%3A%2F%2Ftracker.openbittorrent.com%3A80&amp;tr=udp%3A%2F%2Fopen.demonii.com%3A1337&amp;tr=udp%3A%2F%2Ftracker.coppersurfer.tk%3A6969&amp;tr=udp%3A%2F%2Fexodus.desync.com%3A6969","seeders":1,"leechers":1,"uploader":"s0bersky","files":-1,"time":1392251934,"description":"Audio files has been extracted using AVS Audio Conventer 7.2 - it is original PCM stream (24bit/48kHz) losslessly compressed using FLAC 1.3.0\n\nAll cuesheets made manually by x0001. I have taken them from his release (I have successfully downloaded 0,9% and it was enough for the cues). I hope you're not mad, bro. ;)\n\n================================================================================\n\nGeneral\nComplete name                            : C:LosslessDavid Gilmour - Remember That Night [Columbia US - 88697 13913 9 Blu-ray] [24-48] [FLAC]David Gilmour - Remember That Night [Columbia US - 88697 13913 9 Blu-ray] - Part 1.flac\nFormat                                   : FLAC\nFormat/Info                              : Free Lossless Audio Codec\nFile size                                : 668 MiB\nDuration                                 : 1h 10mn\nOverall bit rate mode                    : Variable\nOverall bit rate                         : 1 324 Kbps\n\nAudio\nFormat                                   : FLAC\nFormat/Info                              : Free Lossless Audio Codec\nDuration                                 : 1h 10mn\nBit rate mode                            : Variable\nBit rate                                 : 1 324 Kbps\nChannel(s)                               : 2 channels\nSampling rate                            : 48.0 KHz\nBit depth                                : 24 bits\nStream size                              : 668 MiB (100%)\nWriting library                          : libFLAC 1.3.0 (UTC 2013-05-26)\n\n================================================================================\n\nGeneral\nComplete name                            : C:LosslessDavid Gilmour - Remember That Night [Columbia US - 88697 13913 9 Blu-ray] [24-48] [FLAC]David Gilmour - Remember That Night [Columbia US - 88697 13913 9 Blu-ray] - Part 2.flac\nFormat                                   : FLAC\nFormat/Info                              : Free Lossless Audio Codec\nFile size                                : 866 MiB\nDuration                                 : 1h 20mn\nOverall bit rate mode                    : Variable\nOverall bit rate                         : 1 497 Kbps\n\nAudio\nFormat                                   : FLAC\nFormat/Info                              : Free Lossless Audio Codec\nDuration                                 : 1h 20mn\nBit rate mode                            : Variable\nBit rate                                 : 1 497 Kbps\nChannel(s)                               : 2 channels\nSampling rate                            : 48.0 KHz\nBit depth                                : 24 bits\nStream size                              : 866 MiB (100%)\nWriting library                          : libFLAC 1.3.0 (UTC 2013-05-26)\n\nfoobar2000 1.3.1 / Dynamic Range Meter 1.1.1\nlog date: 2014-02-12 22:19:59\n\n--------------------------------------------------------------------------------\nAnalyzed: ? / ?\n--------------------------------------------------------------------------------\n\nDR         Peak         RMS     Duration Track\n--------------------------------------------------------------------------------\nDR14       0.00 dB   -17.67 dB   1:10:32 ?-David Gilmour - Remember That Night [Columbia US - 88697 13913 9 Blu-ray] - Part 1\nDR13       0.00 dB   -16.74 dB   1:20:53 ?-David Gilmour - Remember That Night [Columbia US - 88697 13913 9 Blu-ray] - Part 2\n--------------------------------------------------------------------------------\n\nNumber of tracks:  2\nOfficial DR value: DR13\n\nSamplerate:        48000 Hz\nChannels:          2\nBits per sample:   24\nBitrate:           1497 kbps\nCodec:             FLAC\n================================================================================","torrent":{"xt":"urn:btih:56425c3600e565ec91f22980b2d83ff12140aae9","amp;dn":"David+Gilmour+-+Remember+That+Night+%282007%29+%5BColumbia+US+-+88697+","amp;tr":["udp%3A%2F%2Ftracker.openbittorrent.com%3A80","udp%3A%2F%2Fopen.demonii.com%3A1337","udp%3A%2F%2Ftracker.coppersurfer.tk%3A6969","udp%3A%2F%2Fexodus.desync.com%3A6969"],"infoHash":"56425c3600e565ec91f22980b2d83ff12140aae9","infoHashBuffer":{"type":"Buffer","data":[86,66,92,54,0,229,101,236,145,242,41,128,178,216,63,241,33,64,170,233]},"announce":[],"urlList":[]}}